<svg xmlns="http://www.w3.org/2000/svg" viewBox="0 0 240 200" fill="none">
  <ellipse cx="120" cy="185" rx="70" ry="8" fill="#C4B5FD" opacity="0.35"/>
  <rect x="95" y="118" width="90" height="52" rx="8" fill="#7C3AED"/>
  <rect x="100" y="123" width="80" height="38" rx="4" fill="#EDE9FE"/>
  <rect x="108" y="131" width="48" height="4" rx="2" fill="#A78BFA"/>
  <rect x="108" y="140" width="64" height="3" rx="1.5" fill="#C4B5FD"/>
  <rect x="108" y="148" width="40" height="3" rx="1.5" fill="#C4B5FD"/>
  <path d="M88 118 L95 118 L95 170 L82 170 Z" fill="#6D28D9"/>
  <circle cx="72" cy="72" r="22" fill="#FDBA74"/>
  <path d="M50 72 Q72 52 94 72" fill="#1E293B"/>
  <ellipse cx="72" cy="95" rx="28" ry="32" fill="#6366F1"/>
  <path d="M44 118 Q72 108 100 118 L100 170 L44 170 Z" fill="#4F46E5"/>
  <circle cx="64" cy="68" r="2.5" fill="#1E293B"/>
  <circle cx="80" cy="68" r="2.5" fill="#1E293B"/>
  <path d="M66 78 Q72 82 78 78" stroke="#1E293B" stroke-width="1.5" stroke-linecap="round" fill="none"/>
  <rect x="58" y="108" width="28" height="8" rx="4" fill="#FDBA74"/>
</svg>
